<?xml version="1.0" standalone="no"?>
<!DOCTYPE svg PUBLIC "-//W3C//DTD SVG 20010904//EN"
 "http://www.w3.org/TR/2001/REC-SVG-20010904/DTD/svg10.dtd">
<svg version="1.0" xmlns="http://www.w3.org/2000/svg"
 width="512.000000pt" height="512.000000pt" viewBox="0 0 512.000000 512.000000"
 preserveAspectRatio="xMidYMid meet">
<metadata>
Created by potrace 1.14, written by Peter Selinger 2001-2017
</metadata>
<g transform="translate(0.000000,512.000000) scale(0.100000,-0.100000)"
fill="#000000" stroke="none">
<path d="M2490 5092 c0 -41 20 -146 30 -156 5 -5 7 9 4 30 -2 22 -6 65 -9 97
-7 58 -25 80 -25 29z"/>
<path d="M3457 4958 c3 -90 9 -167 13 -171 10 -11 22 224 14 283 -4 31 -12 50
-19 50 -10 0 -12 -35 -8 -162z"/>
<path d="M3686 5020 c-20 -101 -17 -149 4 -69 6 24 17 59 25 77 13 29 19 32
59 32 35 0 47 5 60 25 21 31 20 35 -4 35 -11 0 -20 -5 -20 -10 0 -16 -43 -29
-57 -18 -7 6 -10 14 -7 19 3 5 -5 9 -18 9 -22 0 -25 -7 -42 -100z"/>
<path d="M3990 5101 c0 -30 -36 -67 -97 -101 -68 -37 -183 -146 -183 -173 0
-9 8 -21 17 -24 9 -4 41 -30 70 -60 53 -52 63 -58 93 -53 19 3 104 61 265 181
105 79 137 109 165 155 63 103 76 94 -140 94 -179 0 -190 -1 -190 -19z m190
-114 c0 -13 -11 -34 -25 -47 -29 -28 -30 -24 -9 30 18 44 34 52 34 17z"/>
<path d="M2751 4968 c-1 -21 4 -38 9 -38 11 0 11 14 0 50 -7 22 -8 21 -9 -12z"/>
<path d="M2355 4910 c-93 -11 -218 -37 -276 -59 -45 -18 -308 -182 -474 -297
-86 -60 -322 -286 -358 -344 -27 -43 -37 -18 -12 30 9 18 25 78 36 133 22 113
46 173 69 170 8 -1 40 -9 69 -17 l55 -15 53 30 c48 28 83 69 83 99 0 7 -19 0
-44 -14 -50 -29 -64 -31 -120 -15 l-39 11 6 46 c10 96 -14 96 -76 -1 -79 -125
-101 -195 -131 -417 -16 -112 -19 -121 -110 -310 -115 -240 -108 -223 -144
-361 -85 -323 -80 -477 24 -734 20 -49 46 -124 59 -165 12 -41 39 -109 58
-150 44 -90 51 -141 67 -430 9 -162 9 -235 0 -298 -8 -58 -8 -98 -1 -138 10
-52 51 -143 78 -172 7 -7 9 -20 6 -29 -4 -11 -3 -14 6 -9 6 4 11 4 10 -1 -1
-4 3 -21 9 -36 7 -16 12 -36 11 -45 -1 -11 -4 -7 -9 8 -5 17 -8 19 -9 8 -1
-10 -5 -18 -11 -18 -13 0 -13 6 0 31 6 10 7 19 2 19 -5 0 -15 -11 -22 -25 -9
-17 -16 -22 -21 -13 -6 9 -12 8 -25 -3 -9 -8 -25 -13 -36 -11 -14 3 -18 -3
-19 -30 l-1 -33 -9 30 c-11 35 -13 212 -3 291 4 34 3 54 -4 54 -14 0 -96 -102
-131 -164 -33 -58 -51 -68 -196 -121 -255 -93 -544 -165 -660 -165 -29 0 -67
-3 -84 -6 l-31 -6 0 -609 0 -609 430 0 c458 0 471 1 599 52 197 78 294 108
498 153 22 5 23 4 17 -54 -4 -32 -3 -79 0 -105 7 -42 10 -46 34 -46 27 0 27 1
29 78 1 53 10 103 29 162 24 75 28 101 28 225 1 77 -3 164 -7 194 l-8 55 104
-101 c159 -153 366 -283 545 -343 124 -41 290 -58 417 -41 195 26 438 138 523
243 21 25 10 21 -91 -32 -219 -115 -355 -153 -547 -152 -105 1 -144 6 -242 31
-230 58 -397 158 -589 350 -240 241 -379 468 -418 686 -20 110 -51 378 -62
530 -11 160 -8 215 21 505 11 102 24 248 30 325 13 164 27 260 42 289 16 31
58 86 66 86 4 0 8 -32 10 -70 3 -77 33 -161 71 -194 26 -23 27 -15 4 21 -10
15 -25 51 -35 80 -16 53 -16 54 5 67 12 8 39 19 60 26 21 7 54 26 73 43 60 52
151 67 409 67 228 1 273 7 316 46 27 24 24 60 -6 80 -70 46 -309 88 -369 65
-28 -11 -27 -10 16 41 25 29 80 100 123 158 43 58 88 118 101 133 13 15 57 96
97 180 40 84 97 192 125 240 29 48 52 92 52 97 0 6 3 10 8 10 6 0 29 -56 128
-310 40 -104 122 -261 160 -306 l25 -29 -4 158 c-3 147 3 190 17 133 11 -43
125 -204 194 -274 37 -37 111 -101 164 -141 54 -40 100 -75 102 -79 2 -4 -55
-7 -127 -7 -106 0 -150 -5 -221 -23 -116 -30 -152 -46 -165 -71 -14 -25 7 -73
36 -87 10 -5 162 -9 338 -9 l320 0 115 -38 c131 -44 153 -47 183 -20 28 24 90
45 110 37 20 -7 54 -95 72 -184 8 -36 19 -168 25 -295 6 -126 16 -270 23 -320
22 -164 14 -385 -22 -600 -90 -535 -160 -680 -473 -988 -88 -87 -158 -161
-155 -164 7 -6 207 127 207 138 0 4 7 10 16 13 12 4 15 2 10 -9 -3 -9 -13 -75
-22 -148 -19 -156 -15 -339 11 -469 l18 -88 49 0 c44 0 49 2 43 18 -26 62 -17
65 56 20 50 -32 57 -33 171 -36 127 -4 164 1 138 19 -11 8 -9 9 10 4 14 -4 29
-11 34 -16 6 -5 236 -9 518 -9 l508 0 0 451 c0 347 -3 453 -12 463 -8 7 -47
13 -98 14 -47 2 -111 8 -142 14 -43 8 -61 8 -72 -1 -8 -7 -28 -16 -45 -21 -37
-10 -35 -20 -16 125 8 61 15 125 15 143 0 17 4 32 9 32 6 0 61 -49 123 -109
104 -100 156 -137 216 -156 22 -6 23 -5 20 36 -3 42 -5 45 -69 80 -100 54
-215 137 -278 199 -85 85 -162 243 -206 427 -53 218 -88 337 -143 484 -66 177
-82 211 -137 309 l-47 83 27 115 c25 106 81 277 121 369 53 124 96 272 101
354 5 75 2 98 -26 198 -17 62 -47 147 -66 189 -41 87 -127 218 -186 282 -23
25 -84 95 -134 155 -324 385 -627 576 -1043 656 -100 19 -123 20 -207 10 -57
-7 -117 -21 -153 -37 l-59 -25 -28 25 c-46 43 -120 58 -230 46z m1829 -2450
c11 -80 -15 -209 -51 -256 -19 -26 -22 -38 -17 -77 11 -75 -31 -201 -50 -152
-3 9 -6 94 -5 190 0 126 4 186 14 215 17 49 74 130 90 130 7 0 15 -22 19 -50z
m75 -362 c33 -59 139 -341 146 -385 5 -32 -5 -63 -20 -63 -17 0 -87 -119 -81
-136 3 -7 1 -16 -5 -19 -5 -4 -7 -11 -3 -16 14 -23 -78 -72 -248 -134 -26 -9
-50 -21 -53 -26 -4 -5 -12 -9 -20 -9 -10 0 -9 10 5 48 10 27 28 91 40 143 21
90 42 140 58 138 28 -5 50 29 31 48 -4 4 5 44 21 89 15 44 33 124 40 177 6 53
16 111 21 129 5 18 9 45 9 60 0 42 21 26 59 -44z m-155 -433 c-4 -8 -10 -15
-15 -15 -4 0 -6 7 -3 15 4 8 10 15 15 15 4 0 6 -7 3 -15z m-3767 -598 c2 -17
0 -17 -17 3 -11 13 -17 26 -14 31 7 13 30 -11 31 -34z m20 37 c-3 -3 -12 -4
-19 -1 -8 3 -5 6 6 6 11 1 17 -2 13 -5z m1101 -203 c-11 -14 -11 -14 3 -3 14
10 19 8 33 -12 19 -30 20 -40 4 -30 -8 4 -10 3 -5 -2 5 -5 13 -9 19 -9 6 0 23
-22 39 -50 31 -56 54 -193 45 -280 -3 -28 -5 -56 -5 -63 -1 -21 -21 -3 -21 18
0 11 -9 28 -21 39 -13 11 -18 24 -14 32 5 7 4 10 -1 6 -5 -3 -22 25 -38 63
-16 38 -42 83 -57 101 -15 18 -25 38 -22 46 3 7 0 13 -7 13 -7 0 -10 6 -7 14
3 8 2 16 -2 18 -14 5 -24 68 -12 68 6 0 11 9 11 19 0 11 4 22 10 26 6 4 6 15
0 31 -7 17 -7 23 0 19 6 -3 10 1 10 10 0 10 -5 13 -12 9 -8 -5 -9 -2 -5 9 3
10 2 17 -4 17 -6 0 -7 5 -4 10 4 6 22 -15 41 -46 29 -47 32 -59 22 -73z m-73
69 c3 -5 1 -10 -4 -10 -6 0 -11 5 -11 10 0 6 2 10 4 10 3 0 8 -4 11 -10z
m3442 -36 c-3 -3 -12 -4 -19 -1 -8 3 -5 6 6 6 11 1 17 -2 13 -5z m-233 -86
c-19 -64 -35 -92 -44 -79 -5 9 -1 30 13 57 23 46 43 59 31 22z m-3399 -58 c4
-11 18 -35 33 -52 15 -18 21 -28 13 -24 -10 7 -12 3 -6 -15 5 -18 4 -20 -4 -9
-5 8 -13 11 -17 7 -4 -3 -1 -13 5 -21 7 -8 8 -17 3 -20 -6 -3 -12 4 -15 16 -5
17 -9 19 -20 10 -12 -10 -14 -2 -13 58 1 70 9 88 21 50z m83 -132 c-12 -7 -4
-12 15 -9 4 0 6 -5 5 -12 -2 -6 2 -11 9 -10 14 3 33 -19 37 -43 3 -15 -3 -19
-23 -20 -14 -1 -20 1 -13 3 19 7 14 22 -7 18 -14 -3 -18 1 -14 16 7 25 -13 49
-38 44 -17 -3 -18 -1 -7 18 7 12 11 26 9 32 -1 5 7 1 18 -10 16 -14 18 -20 9
-27z m-99 -84 c1 11 4 17 7 13 3 -3 3 -15 -1 -28 -6 -17 -9 -19 -16 -8 -5 8
-8 23 -8 34 1 16 2 16 9 -5 6 -19 8 -21 9 -6z m194 -40 c-3 -9 0 -14 8 -12 9
2 13 -4 11 -16 -2 -10 1 -15 7 -12 6 4 8 -3 5 -19 -2 -14 0 -25 6 -25 5 0 10
8 10 17 0 15 2 15 14 -2 8 -11 11 -26 8 -34 -3 -9 -1 -12 6 -7 18 11 26 -21
14 -47 -10 -20 -11 -18 -6 11 3 22 1 31 -8 30 -7 -2 -12 5 -12 15 1 9 -2 17
-7 17 -12 0 -12 -37 0 -44 5 -3 12 -23 16 -43 l7 -38 17 32 16 33 14 -23 c13
-20 13 -21 -2 -9 -13 11 -16 10 -21 -5 -3 -10 -4 -28 -1 -41 4 -21 2 -22 -33
-16 -47 9 -150 10 -159 1 -12 -13 2 -15 47 -7 45 8 76 -2 64 -21 -7 -12 17
-11 36 1 12 8 12 10 -5 11 -11 0 -14 3 -8 6 7 2 23 -3 35 -12 15 -12 17 -15 6
-12 -10 4 -18 2 -18 -2 0 -11 -97 -37 -123 -33 -10 1 -15 -3 -12 -8 3 -6 2
-10 -3 -10 -16 0 -22 13 -11 27 9 9 8 13 0 13 -6 0 -11 -4 -11 -9 0 -5 -10 -7
-22 -5 l-23 5 23 -10 c39 -18 28 -32 -39 -45 -18 -4 -41 -13 -108 -42 -46 -21
-52 -22 -46 -6 4 9 13 40 21 67 7 28 19 75 27 105 9 30 18 76 22 103 3 26 10
47 15 47 5 0 12 -21 15 -47 10 -73 16 -76 10 -5 -3 42 -1 61 5 57 7 -4 9 4 5
22 -5 26 -5 26 5 5 5 -13 8 -33 6 -45 -1 -12 -1 -16 1 -9 5 15 14 15 33 -1 20
-17 23 -37 5 -37 -21 0 -19 -33 4 -58 23 -28 27 -28 35 3 4 17 13 25 29 25 18
0 19 -2 7 -10 -11 -7 -7 -10 18 -10 18 0 31 -5 30 -11 -4 -18 51 -34 65 -19 9
10 9 14 0 17 -18 7 -63 51 -63 62 0 6 6 8 13 6 14 -6 17 72 3 94 -12 19 -16
62 -6 56 5 -3 7 -12 3 -21z m-216 -41 c-3 -10 -5 -2 -5 17 0 19 2 27 5 18 2
-10 2 -26 0 -35z m209 -10 c-4 -8 -2 -11 5 -7 8 4 9 -1 4 -17 -9 -30 -11 -32
-24 -25 -8 5 -9 22 -2 69 0 5 6 5 12 2 6 -4 8 -14 5 -22z m-72 -68 c4 -10 -1
-15 -14 -15 -11 0 -20 7 -20 15 0 8 6 15 14 15 8 0 16 -7 20 -15z m296 -73 c0
-18 -18 -42 -31 -42 -4 0 -6 8 -4 18 1 9 8 16 15 14 8 -2 10 3 7 13 -4 8 -2
15 3 15 6 0 10 -8 10 -18z m2259 -43 c43 2 58 -11 66 -58 8 -47 -14 -106 -43
-113 -48 -13 -88 63 -63 119 14 32 11 35 -13 17 -15 -10 -21 -30 -24 -74 -3
-41 -9 -60 -18 -60 -15 0 -28 59 -21 96 3 20 0 28 -14 31 -28 8 -23 32 9 39
15 3 32 7 37 9 6 2 19 1 30 -3 11 -3 35 -4 54 -3z m277 -33 c13 -30 13 -30 14
-6 1 40 15 57 34 41 11 -9 16 -29 15 -65 -1 -72 -11 -100 -36 -104 -17 -2 -24
5 -35 34 l-13 37 -5 -34 c-4 -26 -10 -34 -25 -34 -18 0 -20 6 -19 65 0 105 38
140 70 66z m224 24 c13 -25 9 -166 -5 -163 -5 1 -15 21 -21 45 l-10 43 -8 -37
c-11 -61 -44 -60 -47 2 -1 22 -2 22 -8 -6 -20 -81 -51 -58 -45 32 7 89 40 125
66 69 l11 -25 18 30 c22 35 34 38 49 10z m128 3 c-2 -10 -16 -24 -31 -31 -34
-16 -35 -31 -2 -24 18 3 25 0 25 -12 0 -9 -4 -16 -8 -16 -5 0 -17 -7 -28 -15
-18 -15 -17 -16 14 -10 27 6 32 4 32 -13 0 -22 -46 -46 -77 -40 -15 3 -18 14
-18 78 0 69 2 75 25 87 38 19 72 17 68 -4z m-454 -15 c24 -34 20 -102 -7 -134
-42 -49 -87 -8 -87 78 0 70 60 105 94 56z m606 8 c14 -18 10 -58 -8 -64 -7 -2
-16 5 -19 17 -8 33 -23 14 -23 -30 0 -35 3 -39 24 -39 32 0 40 -14 20 -34 -59
-59 -121 61 -71 137 19 30 57 36 77 13z m114 -8 c9 -12 16 -39 16 -60 0 -76
-39 -113 -83 -78 -17 14 -22 28 -22 68 0 79 54 121 89 70z m102 -20 c5 -18 8
-17 25 11 35 58 59 28 59 -74 0 -49 -3 -66 -12 -63 -7 3 -14 19 -16 36 -3 34
-22 45 -22 14 0 -10 -7 -27 -14 -38 -14 -18 -15 -17 -27 16 l-13 35 -8 -32
c-18 -67 -45 -19 -35 63 8 74 44 92 63 32z m-3346 22 c0 -5 -5 -10 -11 -10 -5
0 -7 5 -4 10 3 6 8 10 11 10 2 0 4 -4 4 -10z m3028 -132 c-3 -7 -11 -13 -18
-13 -7 0 -15 6 -17 13 -3 7 4 12 17 12 13 0 20 -5 18 -12z"/>
<path d="M4065 1620 c-3 -5 -1 -19 6 -31 9 -17 13 -19 20 -8 6 9 4 15 -6 17
-8 2 -11 10 -8 18 6 16 -3 19 -12 4z"/>
<path d="M4098 1613 c7 -3 16 -2 19 1 4 3 -2 6 -13 5 -11 0 -14 -3 -6 -6z"/>
<path d="M1206 718 c3 -5 10 -6 15 -3 13 9 11 12 -6 12 -8 0 -12 -4 -9 -9z"/>
<path d="M1256 663 c-6 -14 -5 -15 5 -6 7 7 10 15 7 18 -3 3 -9 -2 -12 -12z"/>
<path d="M1307 613 c-4 -3 -7 -11 -7 -16 0 -6 3 -7 7 -4 3 4 13 1 21 -6 13
-10 14 -9 3 11 -13 24 -14 25 -24 15z"/>
<path d="M1390 431 c0 -5 5 -13 10 -16 6 -3 10 -2 10 4 0 5 -4 13 -10 16 -5 3
-10 2 -10 -4z"/>
<path d="M1140 411 c0 -6 4 -13 10 -16 6 -3 7 1 4 9 -7 18 -14 21 -14 7z"/>
<path d="M1141 354 c0 -11 3 -14 6 -6 3 7 2 16 -1 19 -3 4 -6 -2 -5 -13z"/>
<path d="M1186 221 c-19 -7 -19 -8 2 -13 12 -4 20 -2 17 2 -3 5 1 11 7 13 7 3
9 5 3 6 -5 0 -19 -4 -29 -8z"/>
<path d="M3857 243 c-11 -10 -8 -61 3 -68 6 -4 10 10 10 34 0 42 -2 46 -13 34z"/>
<path d="M3977 244 c-11 -11 -8 -64 3 -64 14 0 24 50 13 61 -5 5 -12 6 -16 3z"/>
<path d="M4695 230 c-7 -23 2 -60 16 -60 5 0 9 18 9 40 0 42 -14 54 -25 20z"/>
<path d="M525 4566 c-82 -17 -145 -36 -145 -43 0 -3 59 -2 131 2 l132 7 -7
-23 c-20 -68 -129 -781 -138 -903 l-3 -40 -99 -17 c-54 -10 -144 -35 -200 -56
-100 -38 -100 -38 -59 -41 24 -2 75 6 115 17 40 11 111 24 158 29 47 6 93 13
102 17 26 11 33 -31 32 -195 -2 -154 -12 -211 -62 -348 -16 -45 -33 -74 -44
-78 -31 -9 -175 77 -313 187 -38 31 -82 64 -98 73 l-27 18 0 -33 c0 -29 7 -39
48 -67 26 -18 87 -61 135 -97 97 -70 178 -106 247 -108 l45 -2 28 85 c54 165
81 441 57 571 -13 67 -11 89 24 363 20 160 54 379 76 486 22 107 39 198 40
203 0 11 -107 7 -175 -7z"/>
<path d="M195 4238 c-10 -33 -47 -248 -43 -259 9 -28 50 111 55 189 5 73 0
105 -12 70z"/>
<path d="M74 3787 c-12 -12 -33 -33 -48 -46 -22 -20 -26 -31 -25 -80 l0 -56
15 39 c7 21 30 56 49 77 20 23 35 50 35 64 0 30 0 30 -26 2z"/>
<path d="M1646 2938 c3 -13 15 -40 26 -62 16 -31 17 -40 6 -47 -7 -5 -16 -9
-20 -9 -5 0 -26 -16 -47 -36 -33 -29 -43 -34 -59 -25 -25 13 -77 79 -86 109
-9 28 -26 29 -26 2 0 -36 38 -96 80 -130 36 -29 39 -34 27 -49 -35 -41 -42
-122 -15 -174 5 -11 30 -28 55 -39 61 -27 412 -47 536 -31 165 22 205 57 193
166 -11 107 -88 217 -182 262 -86 41 -236 43 -351 5 -65 -21 -73 -18 -104 42
-21 41 -45 53 -33 16z m426 -109 c106 -27 191 -133 186 -234 -3 -47 -5 -51
-43 -70 -37 -19 -57 -20 -284 -17 -373 4 -414 22 -341 149 83 146 292 220 482
172z"/>
<path d="M1944 2715 c-20 -20 -25 -33 -22 -68 3 -37 7 -44 39 -61 31 -17 40
-18 67 -7 63 26 64 114 1 146 -39 21 -56 19 -85 -10z"/>
<path d="M3711 2917 c-8 -24 -28 -45 -64 -69 -60 -42 -87 -51 -106 -39 -11 7
-8 17 17 47 44 53 40 62 -8 24 -43 -34 -50 -35 -126 -6 -66 24 -202 38 -278
27 -129 -18 -243 -94 -289 -191 -11 -25 -23 -73 -25 -107 -4 -58 -2 -64 25
-92 46 -46 115 -56 351 -54 294 2 421 22 459 72 17 22 16 120 -1 150 -8 14
-12 31 -9 38 3 7 -2 13 -10 13 -8 0 -21 7 -28 16 -11 14 -6 23 41 65 30 28 63
57 73 65 11 9 17 25 15 41 -4 39 -25 39 -37 0z m-369 -88 c105 -23 227 -105
268 -182 29 -55 23 -88 -22 -105 -46 -18 -327 -35 -493 -30 -178 6 -205 17
-205 84 0 104 74 192 193 230 53 16 189 18 259 3z"/>
<path d="M3169 2725 c-29 -16 -47 -56 -41 -93 5 -31 59 -64 92 -57 66 16 87
98 36 141 -31 27 -50 29 -87 9z"/>
<path d="M3748 2809 c-9 -13 -31 -39 -49 -57 -32 -33 -32 -34 -9 -30 26 3 85
77 78 98 -2 8 -10 4 -20 -11z"/>
<path d="M2376 2575 c-4 -33 -14 -105 -22 -159 -18 -127 -17 -139 6 -95 25 48
48 241 33 284 -10 29 -11 27 -17 -30z"/>
<path d="M2231 2074 c-75 -81 -96 -153 -65 -221 26 -54 76 -87 130 -84 83 4
109 4 191 -4 70 -7 97 -4 179 15 87 21 100 22 147 10 62 -16 88 -15 126 5 57
29 87 113 62 177 -12 33 -60 78 -82 78 -24 0 -24 -5 2 -41 23 -33 34 -87 25
-124 -10 -40 -45 -51 -112 -35 -51 12 -64 12 -151 -10 -81 -19 -110 -21 -182
-15 -47 4 -123 10 -167 13 -106 9 -128 26 -122 93 4 34 17 64 46 108 23 33 42
65 42 71 0 23 -30 7 -69 -36z"/>
<path d="M3330 1621 c0 -5 6 -13 13 -19 7 -6 24 -34 37 -62 25 -54 50 -66 50
-25 0 34 -24 80 -52 99 -25 18 -48 21 -48 7z"/>
<path d="M1863 1580 c-109 -62 -70 -144 94 -201 191 -65 870 -76 1158 -18 119
24 220 67 230 99 10 32 2 34 -45 10 -57 -29 -241 -67 -392 -81 -143 -13 -642
-6 -783 12 -109 13 -235 52 -260 79 -17 19 -17 21 34 70 28 27 51 52 51 55 0
13 -40 2 -87 -25z"/>
<path d="M1197 1415 c-4 -8 -2 -17 3 -20 6 -4 10 3 10 14 0 25 -6 27 -13 6z"/>
<path d="M4966 987 c3 -10 9 -15 12 -12 3 3 0 11 -7 18 -10 9 -11 8 -5 -6z"/>
<path d="M4760 970 c0 -11 4 -20 9 -20 5 0 7 9 4 20 -3 11 -7 20 -9 20 -2 0
-4 -9 -4 -20z"/>
<path d="M4896 975 c-4 -10 1 -15 16 -15 17 0 18 2 8 15 -7 8 -14 15 -15 15
-2 0 -5 -7 -9 -15z"/>
</g>
</svg>
